<svg xmlns="http://www.w3.org/2000/svg" viewBox="0 0 48 48" fill="none">
  <defs>
    <linearGradient id="brandGrad" x1="0%" y1="0%" x2="100%" y2="100%">
      <stop offset="0%" stop-color="#10B981" />
      <stop offset="50%" stop-color="#059669" />
      <stop offset="100%" stop-color="#0F382A" />
    </linearGradient>
    <linearGradient id="warmGrad" x1="0%" y1="0%" x2="100%" y2="100%">
      <stop offset="0%" stop-color="#FBBF24" />
      <stop offset="100%" stop-color="#F59E0B" />
    </linearGradient>
  </defs>
  <!-- Background Circle -->
  <circle cx="24" cy="24" r="23" fill="#F0FDF4" stroke="#D1FAE5" stroke-width="2"/>
  
  <!-- Food Plate Rim (outer bottom arc) -->
  <path d="M10 24C10 31.732 16.268 38 24 38C31.732 38 38 31.732 38 24" stroke="url(#brandGrad)" stroke-width="3.5" stroke-linecap="round"/>
  
  <!-- Pulse / Heartbeat line across plate -->
  <path d="M11 24H18L21 16L25 31L28 21L31 24H37" stroke="url(#warmGrad)" stroke-width="2.5" stroke-linecap="round" stroke-linejoin="round"/>
  
  <!-- Vital Leaf Sprout on top right -->
  <path d="M26 14C26 14 31 11 35 12C36 16 33 21 33 21C33 21 30 18 26 14Z" fill="#10B981"/>
  <path d="M26 14C29 17 33 21 33 21" stroke="#047857" stroke-width="1.2" stroke-linecap="round"/>
</svg>